<svg xmlns="http://www.w3.org/2000/svg"  viewBox="0 0 16 16">
<g transform="scale(0.052)" fill="none">
  <title>Layer 1</title>
  <ellipse fill-opacity="0" stroke="#000" ry="105.499992" rx="102.499987" id="svg_2" cy="179.000003" cx="155.499996" stroke-width="14" fill="#0fffff"/>
  <ellipse stroke="#000" transform="rotate(29 155.897 179.284)" ry="102.323334" rx="46.089942" id="svg_3" cy="179.284344" cx="155.897483" fill-opacity="0" stroke-opacity="null" stroke-width="14" fill="#0fffff"/>
  <ellipse stroke="#000" transform="rotate(120 155.3 179.001)" ry="101.372363" rx="74.950245" id="svg_4" cy="179.000863" cx="155.299919" fill-opacity="0" stroke-opacity="null" stroke-width="14" fill="#0fffff"/>
  <path stroke="#000000" transform="rotate(-30 281.499 104.969)" id="svg_12" d="m270.699402,99.970657l21.599579,0l0,0c2.828644,0 5.120697,2.237534 5.120697,4.998764c0,2.759399 -2.292053,4.997864 -5.120697,4.997864l-21.599579,0l0,0c-2.828552,0 -5.120667,-2.238464 -5.120667,-4.997864c0,-2.76123 2.292114,-4.998764 5.120667,-4.998764z" stroke-opacity="null" stroke-width="4" fill="#000000"/>
  <path stroke="#000000" transform="rotate(-30 292.163 98.8045)" id="svg_13" d="m281.362,93.806l21.600006,0l0,0c2.828979,0 5.121002,2.238007 5.121002,4.998993c0,2.759003 -2.292023,4.998001 -5.121002,4.998001l-21.600006,0l0,0c-2.828003,0 -5.119995,-2.238998 -5.119995,-4.998001c0,-2.760986 2.291992,-4.998993 5.119995,-4.998993z" stroke-opacity="null" stroke-width="4" fill="#000000"/>
  <path stroke="#000000" transform="rotate(-60 227.517 50.487)" id="svg_14" d="m216.717621,45.489052l21.599579,0l0,0c2.828644,0 5.120697,2.237541 5.120697,4.998772c0,2.759384 -2.292053,4.997856 -5.120697,4.997856l-21.599579,0l0,0c-2.828552,0 -5.120667,-2.238457 -5.120667,-4.997856c0,-2.76123 2.292114,-4.998772 5.120667,-4.998772z" stroke-opacity="null" stroke-width="4" fill="#000000"/>
  <path stroke="#000000" transform="rotate(-60 234.016 39.491)" id="svg_15" d="m223.216125,34.32618l21.598999,0l0,0c2.828979,0 5.121002,2.237488 5.121002,4.998688c0,2.759811 -2.292023,4.99781 -5.121002,4.99781l-21.598999,0l0,0c-2.82901,0 -5.121002,-2.237999 -5.121002,-4.99781c0,-2.7612 2.291992,-4.998688 5.121002,-4.998688z" stroke-opacity="null" stroke-width="4" fill="#000000"/>
  <path stroke="#000000" transform="rotate(-120 74.0693 39.3245)" id="svg_16" d="m63.26944,34.326149l21.599594,0l0,0c2.828629,0 5.120682,2.237534 5.120682,4.998764c0,2.759399 -2.292053,4.997864 -5.120682,4.997864l-21.599594,0l0,0c-2.828552,0 -5.120651,-2.238464 -5.120651,-4.997864c0,-2.76123 2.292099,-4.998764 5.120651,-4.998764z" stroke-opacity="null" stroke-width="4" fill="#000000"/>
  <path stroke="#000000" transform="rotate(-120 80.2338 49.9875)" id="svg_17" d="m69.43396,44.98922l21.599579,0l0,0c2.828644,0 5.120697,2.237534 5.120697,4.998764c0,2.759399 -2.292053,4.997864 -5.120697,4.997864l-21.599579,0l0,0c-2.828552,0 -5.120667,-2.238464 -5.120667,-4.997864c0,-2.76123 2.292114,-4.998764 5.120667,-4.998764z" stroke-opacity="null" stroke-width="4" fill="#000000"/>
  <path transform="rotate(90 154.375 29.3279)" stroke="#000000" id="svg_18" d="m143.575653,24.329538l21.599579,0l0,0c2.828613,0 5.120697,2.237539 5.120697,4.99877c0,2.759396 -2.292084,4.997864 -5.120697,4.997864l-21.599579,0l0,0c-2.828552,0 -5.120697,-2.238468 -5.120697,-4.997864c0,-2.76123 2.292145,-4.99877 5.120697,-4.99877z" stroke-opacity="null" stroke-width="4" fill="#000000"/>
  <path transform="rotate(90 154.375 17.6651)" stroke="#000000" id="svg_19" d="m143.575439,12.666809l21.599976,0l0,0c2.828003,0 5.120026,2.237488 5.120026,4.998802c0,2.759401 -2.292023,4.997799 -5.120026,4.997799l-21.599976,0l0,0c-2.828003,0 -5.121002,-2.238398 -5.121002,-4.997799c0,-2.761314 2.292999,-4.998802 5.121002,-4.998802z" stroke-opacity="null" stroke-width="4" fill="#000000"/>
  <path stroke="#000000" transform="rotate(-150 16.255 98.471)" id="svg_20" d="m5.455643,93.472855l21.59958,0l0,0c2.828644,0 5.120695,2.237518 5.120695,4.998764c0,2.759384 -2.292051,4.997849 -5.120695,4.997849l-21.59958,0l0,0c-2.828552,0 -5.120667,-2.238464 -5.120667,-4.997849c0,-2.761246 2.292114,-4.998764 5.120667,-4.998764z" stroke-opacity="null" stroke-width="4" fill="#000000"/>
  <path stroke="#000000" transform="rotate(-150 27.419 104.969)" id="svg_21" d="m16.618073,99.970581l21.600006,0l0,0c2.828979,0 5.121002,2.238022 5.121002,4.999008c0,2.759003 -2.292023,4.997986 -5.121002,4.997986l-21.600006,0l0,0c-2.828003,0 -5.119995,-2.238983 -5.119995,-4.997986c0,-2.760986 2.291991,-4.999008 5.119995,-4.999008z" stroke-opacity="null" stroke-width="4" fill="#000000"/>
 </g>
</svg>
