<?xml version="1.0" encoding="utf-8"?>
<!-- Generator: Adobe Illustrator 22.0.1, SVG Export Plug-In . SVG Version: 6.00 Build 0)  -->
<svg version="1.1" id="Layer_1" xmlns="http://www.w3.org/2000/svg" xmlns:xlink="http://www.w3.org/1999/xlink" x="0px" y="0px"
	 viewBox="0 0 24 24" style="enable-background:new 0 0 24 24;" xml:space="preserve">
<style type="text/css">
	.st0{fill:none;}
</style>
<path class="st0" d="M0,0h24v24H0V0z"/>
<path fill="#586069" d="M17,1H5C3.9,1,3,1.9,3,3v14h1V3c0-0.6,0.4-1,1-1h12V1z M19,4H8C6.9,4,6,4.9,6,6v14c0,1.1,0.9,2,2,2h11c1.1,0,2-0.9,2-2V6
	C21,4.9,20.1,4,19,4z M19,21H8c-0.6,0-1-0.4-1-1V6c0-0.6,0.4-1,1-1h11c0.6,0,1,0.4,1,1v14C20,20.6,19.6,21,19,21z"/>
</svg>
