<svg version="1.1" id="Layer_3" xmlns="http://www.w3.org/2000/svg" xmlns:xlink="http://www.w3.org/1999/xlink" x="0px" y="0px" viewBox="0 0 32 32" fill-rule="evenodd" width="100%" height="100%"><path fill="#fff" d="M15.9.1C7.3.1.1 7.2.1 15.9c0 8.7 7.1 15.7 15.8 15.7 8.7 0 15.8-7 15.8-15.7S24.6.1 15.9.1zm7.3 24.3H8.6c-1.4 0-2.6.8-3.2 1.9C2.7 23.6 1 19.9 1 15.8 1 7.7 7.6 1 15.8 1 24 1 30.7 7.7 30.7 15.8c0 4.1-1.7 7.8-4.4 10.4-.5-1.1-1.8-1.8-3.1-1.8z"></path><path fill="#fff" d="M15.9 6.5c3.9 0 7 3.1 7 7s-3.1 7-7 7-7-3.1-7-7 3.1-7 7-7zm0-2c-5 0-9 4-9 9s4 9 9 9 9-4 9-9-4-9-9-9z"></path></svg>
