<svg version="1.1" id="Layer_3" xmlns="http://www.w3.org/2000/svg" xmlns:xlink="http://www.w3.org/1999/xlink" x="0px" y="0px"
	 viewBox="0 0 28.1 28" style="enable-background:new 0 0 28.1 28;" xml:space="preserve">
<style type="text/css">
	.st0{fill:none;stroke:#FFFFFF;stroke-linecap:round;stroke-miterlimit:10;}
	.st1{fill:none;stroke:#FFFFFF;stroke-miterlimit:10;}
</style>
<path class="st0" d="M4.8,19.4c1,4.3,4.9,7.3,9.2,7.3c5.2,0,9.5-4.3,9.5-9.5S19.2,7.6,14,7.6c-0.8,0-1.6,0.1-2.4,0.3"/>
<line class="st0" x1="14" y1="5.1" x2="14" y2="1.1"/>
<line class="st0" x1="19.4" y1="6.3" x2="21.6" y2="2.9"/>
<line class="st0" x1="23.8" y1="10.6" x2="27.2" y2="8.6"/>
<line class="st0" x1="8.5" y1="6.4" x2="6.5" y2="2.9"/>
<line class="st0" x1="4.2" y1="10.6" x2="0.8" y2="8.6"/>
<path class="st1" d="M18.7,8.9c-1.7-1-5.3,1.9-7.9,6.4s-3.3,9-1.6,10c0,0,0,0,0,0"/>
<path class="st0" d="M11.3,10.3c-2.6-0.3-4.7,0.5-5.6,2c-1.6,2.7,0.9,7.1,5.4,9.7s9.5,2.5,11.1-0.2"/>
</svg>
